# xmcd
#
# Track frame offsets:
#	150
#	29407
#	56146
#	78691
#	105420
#	130574
#	159988
#	190973
#	210575
#	233397
#
# Disc length: 3476 seconds
#
# Revision: 12
# Processed by: cddbd v1.5.2PL0 Copyright (c) Steve Scherf et al.
# Submitted via: audiograbber 1.83.01
#
DISCID=780d920a
DTITLE=Various Artist - Compost One Hundred [CD 2)
DYEAR=2001
DGENRE=Electronic
TTITLE0=Minus 8 - Come Along
TTITLE1=Twice - Ism
TTITLE2=Fauna Flash - Ten (Pole remix)
TTITLE3=Beanfield - Re-ac-tion
TTITLE4=Wei Chi - Never Let Me Down
TTITLE5=Supersempft - Wewa
TTITLE6=Procreation - It's All Related To Life
TTITLE7=The Amalgamation Of Soundz - Guilty As Charged
TTITLE8=DJ Force - Shadow In The City
TTITLE9=A Forest Mighty Black - Little Princess
EXTD=
EXTT0=
EXTT1=
EXTT2=
EXTT3=
EXTT4=
EXTT5=
EXTT6=
EXTT7=
EXTT8=
EXTT9=
PLAYORDER=
